<?xml version="1.0" encoding="UTF-8"?>
<svg version="1.1" xmlns="http://www.w3.org/2000/svg" width="512" height="512">
<path d="M0 0 C0.87760986 0.64654541 0.87760986 0.64654541 1.77294922 1.30615234 C48.30138875 35.76542804 78.28881105 86.65942182 90 143 C90.17789062 143.83869629 90.35578125 144.67739258 90.5390625 145.54150391 C95.63478192 170.87349795 95.43839865 200.75521878 90 226 C89.82839355 226.84401367 89.65678711 227.68802734 89.47998047 228.55761719 C83.49235315 257.63426317 72.19472915 290.38419972 51.91625977 312.71264648 C46.44310591 319.7906082 45.31709973 324.59048786 45.22265625 333.4609375 C45.18114441 334.98497192 45.18114441 334.98497192 45.13879395 336.53979492 C45.07373307 339.02672866 45.02795192 341.51241912 45 344 C45.85111359 343.99333817 46.70222717 343.98667633 47.57913208 343.97981262 C55.61224728 343.91962404 63.64528639 343.87398625 71.67857552 343.84456348 C75.80827605 343.82892825 79.93778978 343.80772939 84.06738281 343.77368164 C88.05499983 343.74101137 92.04243751 343.72313087 96.03017807 343.71536827 C97.54918108 343.70983848 99.06817462 343.69904008 100.58710098 343.68280983 C102.71990177 343.66093289 104.85196779 343.65803725 106.98486328 343.65942383 C108.1973172 343.65276199 109.40977112 343.64610016 110.65896606 343.63923645 C115.69967697 344.18353046 118.92755994 345.81162048 122.3125 349.5625 C125.83158038 354.6456161 125.89268485 358.9221104 125 365 C124.00794719 368.06019672 122.77305296 371.00141981 121.515625 373.9609375 C112.45977096 395.64869393 108.93562644 410.16345313 117.84472656 432.44677734 C118.98478837 435.19254573 120.18580603 437.89786871 121.44921875 440.58886719 C124.75390088 447.85791925 125.88418477 454.04233706 125 462 C122.81413614 466.61460149 120.50418457 468.73048476 116 471 C113.21508884 471.38031673 113.21508884 471.38031673 110.12416077 471.38768005 C108.94797684 471.39758469 107.77179291 471.40748932 106.55996704 471.41769409 C105.2782663 471.41319244 103.99656555 471.4086908 102.67602539 471.40405273 C101.30572452 471.40975814 99.93542841 471.41672306 98.56513977 471.42485046 C94.85020677 471.44277864 91.13551002 471.44161418 87.42054677 471.43590808 C84.31666919 471.43281564 81.21283694 471.4389093 78.10896581 471.44494683 C70.78525193 471.45898938 63.46165469 471.45743311 56.13793945 471.44604492 C48.58803764 471.43456429 41.03849108 471.44863885 33.48863608 471.4754414 C27.00099631 471.49760878 20.51346796 471.50423344 14.02579302 471.49836498 C10.15343655 471.49499661 6.28130778 471.49740228 2.40898323 471.51461601 C-1.23306618 471.53009979 -4.87458997 471.52611437 -8.51661873 471.50731087 C-10.48590032 471.50187657 -12.45520559 471.51612829 -14.42443848 471.53100586 C-25.18846291 471.44122252 -25.18846291 471.44122252 -30 467 C-43.16873058 452.01489279 -34 417.24178733 -34 407 C-98.02 407 -162.04 407 -228 407 C-228 424.49 -228 441.98 -228 460 C-230.80569424 465.61138848 -232.52707905 468.26353952 -238 471 C-239.83618107 471.102019 -241.67607874 471.13948708 -243.51507568 471.14717102 C-245.27316559 471.15790398 -245.27316559 471.15790398 -247.06677246 471.16885376 C-248.35925903 471.17154266 -249.65174561 471.17423157 -250.98339844 471.17700195 C-252.3532529 471.18326593 -253.72310566 471.18991267 -255.09295654 471.19691467 C-258.82038891 471.21433186 -262.54780843 471.22487865 -266.27527142 471.2331202 C-268.60405131 471.23826948 -270.93282722 471.24434528 -273.26160431 471.25063133 C-280.54769684 471.26968654 -287.83377922 471.28391624 -295.11989188 471.2922433 C-303.53048599 471.30201406 -311.94081679 471.32832777 -320.35131812 471.36874419 C-326.85161301 471.39890901 -333.35183245 471.41371256 -339.85219598 471.41702431 C-343.73468973 471.41937465 -347.61690231 471.4283323 -351.49932098 471.45348549 C-355.1535972 471.47677754 -358.80740736 471.48099522 -362.46173859 471.47072411 C-364.43823741 471.46999318 -366.41471262 471.48907713 -368.39111328 471.50878906 C-379.24461828 471.44510086 -379.24461828 471.44510086 -384 467 C-387.31367503 462.60456985 -387.723884 459.08972219 -387.59570312 453.69873047 C-386.85655966 449.1093766 -385.31438361 445.20805004 -383.515625 440.94140625 C-374.46521755 419.27059046 -370.93914539 404.82720758 -379.84472656 382.55297852 C-380.98480431 379.80730317 -382.18584857 377.10206303 -383.44921875 374.41113281 C-386.59651258 367.48827554 -387.92542889 361.58400262 -387 354 C-384.4257316 348.85146319 -381.45397599 345.817992 -376 344 C-373.77663393 343.91028673 -371.55061107 343.88242147 -369.32543945 343.88647461 C-368.652005 343.88632858 -367.97857056 343.88618256 -367.284729 343.8860321 C-365.06088021 343.88672825 -362.83711539 343.89450668 -360.61328125 343.90234375 C-359.07057236 343.90420899 -357.52786289 343.90563239 -355.9851532 343.90663147 C-351.92616132 343.91044831 -347.86720527 343.92027149 -343.80822754 343.93133545 C-339.66577641 343.94156748 -335.5233195 343.94613293 -331.38085938 343.95117188 C-323.25388982 343.96189449 -315.12694937 343.97896093 -307 344 C-307.00837552 340.51801826 -307.07730917 337.03963413 -307.15625 333.55859375 C-307.15786133 332.58418335 -307.15947266 331.60977295 -307.16113281 330.60583496 C-307.36736557 323.34977812 -309.11991016 318.82187589 -313.5 313.0625 C-314.09425781 312.27367432 -314.68851562 311.48484863 -315.30078125 310.67211914 C-315.79964844 310.09067139 -316.29851562 309.50922363 -316.8125 308.91015625 C-344.3716237 275.62583634 -355.47518477 228.0191067 -355.375 185.6875 C-355.37445618 184.81659729 -355.37391235 183.94569458 -355.37335205 183.04840088 C-355.30744225 159.95729787 -352.04467989 138.03585574 -345 116 C-344.57509277 114.66557861 -344.57509277 114.66557861 -344.14160156 113.30419922 C-335.32166702 86.21579252 -321.62634246 60.642036 -303 39 C-302.05519179 37.87306421 -301.11125311 36.74539911 -300.16796875 35.6171875 C-291.24245793 25.00084108 -281.91598854 15.60488044 -271 7 C-270.00097656 6.195625 -269.00195312 5.39125 -267.97265625 4.5625 C-240.74238161 -17.13064002 -208.98546562 -30.93196556 -175 -38 C-173.77168457 -38.26683594 -173.77168457 -38.26683594 -172.51855469 -38.5390625 C-113.9686466 -50.69775787 -47.62279175 -35.63601442 0 0 Z M-271 49 C-304.8543618 82.68676595 -324.1077431 132.00627327 -324.24847412 179.36099243 C-324.26661294 207.01724597 -320.32575809 233.48293058 -309 259 C-308.34 259.66 -307.68 260.32 -307 261 C-306.98541748 260.36610352 -306.97083496 259.73220703 -306.95581055 259.07910156 C-306.36142433 235.9505466 -303.04031801 217.12004706 -286.3203125 200.16015625 C-284 198 -284 198 -282 197 C-282.66397293 193.74727868 -283.87155945 191.16813254 -285.4375 188.25 C-291.18575227 176.80333579 -291.9373809 163.91159609 -288.04296875 151.625 C-282.95884891 138.82901299 -276.14739975 130.51235598 -264 124 C-251.73999204 118.75118409 -238.50973012 118.4143218 -226 123 C-214.26744722 127.85129015 -206.25542715 135.14202626 -200.70703125 146.69140625 C-197.66010911 154.07221764 -196.85615367 160.38436191 -196.9375 168.3125 C-196.94201172 169.14845703 -196.94652344 169.98441406 -196.95117188 170.84570312 C-196.96289452 172.89716649 -196.98082797 174.94859273 -197 177 C-194.44758148 174.46135352 -191.91606779 171.9126342 -189.421875 169.31640625 C-184.03920911 163.76848307 -178.71209739 158.92781995 -172 155 C-172.47050781 154.15179688 -172.94101563 153.30359375 -173.42578125 152.4296875 C-181.93051654 136.60427645 -183.95464645 122.31300414 -179 105 C-174.25083926 92.22585477 -165.42495371 81.79699273 -153 76 C-138.67100828 70.22733296 -123.75959843 70.39370568 -109.45703125 75.99609375 C-97.42920704 81.38530491 -88.69648599 90.9954503 -83.71875 103.12109375 C-78.91819708 116.85410407 -78.57720108 130.37415606 -84.2421875 143.984375 C-85.43274372 146.36548743 -86.68649788 148.68511507 -88 151 C-88.67396748 152.32965787 -89.34303884 153.66185791 -90 155 C-89.32195312 155.46148437 -88.64390625 155.92296875 -87.9453125 156.3984375 C-80.89973684 161.33619551 -74.92941985 166.785207 -69 173 C-67.67008108 174.33673902 -66.3378969 175.67124591 -65 177 C-65.04640625 175.76765625 -65.0928125 174.5353125 -65.140625 173.265625 C-65.51690575 159.07323431 -63.72947225 148.58333818 -55 137 C-54.4225 136.13375 -53.845 135.2675 -53.25 134.375 C-45.15809096 125.83354046 -34.0322042 120.68167579 -22.30859375 119.796875 C-9.03299232 119.58013049 4.34765268 122.95391402 14.34375 132.1484375 C24.8186451 143.85857967 28.93016269 157.56764299 28.18798828 173.01904297 C27.44819892 180.81469343 24.59671088 187.76160666 20 194 C20 194.99 20 195.98 20 197 C21.50250256 198.52741026 21.50250256 198.52741026 23.5 200 C34.76083746 209.48700643 41.91149982 223.4973379 44 238 C44.60619879 245.98636395 44.82423002 253.99421149 45 262 C57.98301458 242.52547813 62.04676981 213.90731289 63 191 C63.04125 190.03964844 63.0825 189.07929688 63.125 188.08984375 C64.21250015 135.41405515 42.43108647 85.14579542 6.46875 47.25 C-28.77555514 10.79085003 -75.95485952 -9.54533001 -126.59765625 -10.93359375 C-181.98888592 -11.86776148 -231.70620654 10.79116491 -271 49 Z M-148 110 C-151.15142641 115.42007374 -152.76962892 120.58936526 -151.67578125 126.83203125 C-149.48372758 133.86434217 -145.14979334 138.62868952 -138.8125 142.25 C-132.08377973 144.04432541 -125.84946607 143.74605946 -119.75390625 140.2734375 C-114.69300018 136.59892663 -111.64342858 131.7881905 -110.25 125.75 C-109.78184363 118.7276545 -111.58950833 113.5446181 -116 108 C-120.58536622 103.65596884 -124.67699022 102.18436586 -130.9375 101.6875 C-137.52634376 101.88830286 -143.7726373 104.91015813 -148 110 Z M-254.66015625 154.65625 C-258.75467627 159.22507613 -260.37472868 162.51844977 -260.28125 168.875 C-259.63582844 173.75151847 -256.98281919 177.11078264 -253.375 180.375 C-248.44312939 183.74943779 -243.86325019 183.5971061 -238 183 C-233.54853749 180.81473658 -230.81114855 178.0605479 -228 174 C-226.20089843 168.60269529 -226.30531096 163.89951716 -228.625 158.75 C-230.79615946 154.9127772 -232.92759225 152.88537396 -237 151 C-243.96050511 149.36756884 -249.33325547 149.34188311 -254.66015625 154.65625 Z M-29.66015625 154.69140625 C-33.88670157 159.47749421 -35.31380035 162.26885812 -35.2109375 168.6875 C-34.76168438 173.61264529 -32.58107495 176.68561783 -28.9375 179.8125 C-23.74157293 183.68180739 -19.36628972 183.63933037 -13 183 C-8.07993933 180.67415314 -5.68768565 177.67856392 -3 173 C-1.30820534 167.92461603 -1.43628133 163.68035564 -3.625 158.8125 C-5.79029148 154.93301944 -7.8928204 152.90147204 -12 151 C-18.94893103 149.37028328 -24.3835399 149.31546535 -29.66015625 154.69140625 Z M-168.21875 190.8359375 C-176.31018182 200.66631738 -180.13941134 211.6884411 -180.11352539 224.37255859 C-180.11340454 225.63060303 -180.11328369 226.88864746 -180.11315918 228.18481445 C-180.10804321 229.49281006 -180.10292725 230.80080566 -180.09765625 232.1484375 C-180.09664917 233.36120361 -180.09564209 234.57396973 -180.09460449 235.82348633 C-180.08938444 240.34066721 -180.07542318 244.85783459 -180.0625 249.375 C-180.041875 259.48125 -180.02125 269.5875 -180 280 C-147.66 280 -115.32 280 -82 280 C-81.938125 270.0175 -81.87625 260.035 -81.8125 249.75 C-81.78518799 246.62241211 -81.75787598 243.49482422 -81.72973633 240.27246094 C-81.72096451 237.75976954 -81.71332222 235.24707384 -81.70703125 232.734375 C-81.69168335 231.4570752 -81.67633545 230.17977539 -81.66052246 228.86376953 C-81.65595486 213.02334588 -85.51744213 199.92607568 -96.5546875 188.32421875 C-106.54878372 178.82503783 -119.1088653 173.51959933 -132.99609375 173.7265625 C-146.92083848 174.99409453 -158.63000178 180.65771705 -168.21875 190.8359375 Z M-266 223 C-272.97409004 230.21879495 -276.34409079 237.93641367 -276.33947754 247.9979248 C-276.32412964 248.79396118 -276.30878174 249.58999756 -276.29296875 250.41015625 C-276.28994751 251.16776245 -276.28692627 251.92536865 -276.28381348 252.70593262 C-276.26831196 255.49159695 -276.22643064 258.27706458 -276.1875 261.0625 C-276.125625 267.311875 -276.06375 273.56125 -276 280 C-254.55 280 -233.1 280 -211 280 C-210.938125 273.750625 -210.87625 267.50125 -210.8125 261.0625 C-210.78518799 259.10836182 -210.75787598 257.15422363 -210.72973633 255.14086914 C-210.72096129 253.5639711 -210.71331977 251.98706617 -210.70703125 250.41015625 C-210.69168335 249.61411987 -210.67633545 248.8180835 -210.66052246 247.9979248 C-210.65590921 237.93641367 -214.02590996 230.21879495 -221 223 C-234.08319474 211.47373055 -252.91680526 211.47373055 -266 223 Z M-41 223 C-47.97409004 230.21879495 -51.34409079 237.93641367 -51.33947754 247.9979248 C-51.32412964 248.79396118 -51.30878174 249.58999756 -51.29296875 250.41015625 C-51.28994751 251.16776245 -51.28692627 251.92536865 -51.28381348 252.70593262 C-51.26831196 255.49159695 -51.22643064 258.27706458 -51.1875 261.0625 C-51.125625 267.311875 -51.06375 273.56125 -51 280 C-29.55 280 -8.1 280 14 280 C14.0825 273.77125 14.165 267.5425 14.25 261.125 C14.28641602 259.17996582 14.32283203 257.23493164 14.36035156 255.23095703 C14.49842527 242.63688449 13.09733289 232.46366845 4 223 C-9.11611714 211.5005812 -27.89608703 211.45547783 -41 223 Z M-276 311 C-276 332.45 -276 353.9 -276 376 C-180.3 376 -84.6 376 14 376 C14 354.55 14 333.1 14 311 C-81.7 311 -177.4 311 -276 311 Z M-350 375 C-348.52900925 381.92857688 -348.52900925 381.92857688 -346.52734375 388.5703125 C-346.26759766 389.32183594 -346.00785156 390.07335937 -345.74023438 390.84765625 C-345.20219683 392.37405959 -344.66312318 393.90009808 -344.12304688 395.42578125 C-341.3821699 403.36817287 -340.55813668 409.16642863 -343.1875 417.1875 C-343.41655029 417.92564941 -343.64560059 418.66379883 -343.8815918 419.42431641 C-345.58695565 424.87556959 -347.40257414 430.29268076 -349.30078125 435.6796875 C-350.14426536 438.07483912 -350.14426536 438.07483912 -350 441 C-319.97 441 -289.94 441 -259 441 C-259 429.78 -259 418.56 -259 407 C-261.60132813 406.96261719 -264.20265625 406.92523438 -266.8828125 406.88671875 C-269.41479686 406.84044745 -271.94663667 406.78923428 -274.47851562 406.73754883 C-276.23200627 406.7043878 -277.98560138 406.67632858 -279.73925781 406.65356445 C-282.26672698 406.6198553 -284.79324638 406.56753308 -287.3203125 406.51171875 C-288.09867462 406.50532883 -288.87703674 406.4989389 -289.6789856 406.49235535 C-294.49070515 406.36370202 -297.80673983 405.59838771 -302 403 C-309.13302966 395.12907072 -306.46919697 386.14686368 -307 375 C-321.19 375 -335.38 375 -350 375 Z M45 375 C44.67 381.93 44.34 388.86 44 396 C40.55555556 402.88888889 40.55555556 402.88888889 37 405 C33.20123729 406.26625424 29.57578074 406.23298547 25.61328125 406.31640625 C24.79627243 406.33718735 23.97926361 406.35796844 23.13749695 406.37937927 C20.52924966 406.44473079 17.92090225 406.50369273 15.3125 406.5625 C13.54360946 406.60569892 11.77472903 406.64931365 10.00585938 406.69335938 C5.67067403 406.80117956 1.33541198 406.90035972 -3 407 C-3 418.22 -3 429.44 -3 441 C27.03 441 57.06 441 88 441 C86.52900925 434.07142312 86.52900925 434.07142312 84.52734375 427.4296875 C84.26759766 426.67816406 84.00785156 425.92664063 83.74023438 425.15234375 C83.20219683 423.62594041 82.66312318 422.09990192 82.12304688 420.57421875 C79.3821699 412.63182713 78.55813668 406.83357137 81.1875 398.8125 C81.41655029 398.07435059 81.64560059 397.33620117 81.8815918 396.57568359 C83.58695565 391.12443041 85.40257414 385.70731924 87.30078125 380.3203125 C88.14426536 377.92516088 88.14426536 377.92516088 88 375 C73.81 375 59.62 375 45 375 Z " fill="#000000" transform="translate(387,41)"/>
</svg>
