<svg xmlns="http://www.w3.org/2000/svg" viewBox="0 0 59.16 61.42"><defs><style>.cls-1{fill:#e7e7e7;}</style></defs><g id="Layer_2" data-name="Layer 2"><g id="Layer_3" data-name="Layer 3"><ellipse class="cls-1" cx="39.42" cy="16.61" rx="13.73" ry="14.77"/><rect class="cls-1" x="1.67" y="37.03" width="9.63" height="22.59"/><polygon class="cls-1" points="11.93 38.47 11.93 55.21 23.99 53.8 39.92 54.49 48.38 49.81 58.46 40.99 55.04 36.22 48.02 41.26 43.07 44.45 41.27 46.39 37.04 47.03 31.64 47.03 28.49 45.04 28.76 42.43 38.57 40 39.42 35.77 33.34 34.15 23.22 33.61 11.93 38.47"/><path d="M58.19,37.45a.54.54,0,0,0-.1-.16,4.59,4.59,0,0,0-6.46-.67c-2.48,2-6.08,4.93-8.42,6.82a9.81,9.81,0,0,1-5.8,2.16l-6.34.21a.73.73,0,0,1-.63-.34l-.71-1.21a.66.66,0,0,1,0-.64.7.7,0,0,1,.5-.4L36.76,42a4.56,4.56,0,0,0,3.65-5A4.47,4.47,0,0,0,36,33h-.22L27,32.66A19.91,19.91,0,0,0,17,34.9L12.4,37.11a3.89,3.89,0,0,0-3.48-2.19H3.85A3.83,3.83,0,0,0,0,38.74V57.6a3.85,3.85,0,0,0,3.85,3.82H8.92a3.85,3.85,0,0,0,3.84-3.82V56.32l4.86-.89a19.12,19.12,0,0,1,4.24-.25l13.31.62a19.2,19.2,0,0,0,13.16-4.44l9.23-7.66h0A4.52,4.52,0,0,0,58.19,37.45ZM10.28,57.6A1.36,1.36,0,0,1,8.93,59H3.83A1.35,1.35,0,0,1,2.48,57.6V38.75A1.35,1.35,0,0,1,3.83,37.4h5.1a1.36,1.36,0,0,1,1.35,1.35ZM56,41.8l-9.21,7.64a16.83,16.83,0,0,1-11.48,3.87L22,52.69a22.18,22.18,0,0,0-4.73.28h0l-4.44.82V39.68l5.3-2.57a17.63,17.63,0,0,1,8.81-2l8.82.36H36a2,2,0,0,1,2,1.78,2.08,2.08,0,0,1-1.65,2.27l-6.55,1.24a3.18,3.18,0,0,0-2.53,3.71,3.32,3.32,0,0,0,.39,1l.7,1.2a3.2,3.2,0,0,0,2.85,1.56l6.34-.21a12.42,12.42,0,0,0,7.27-2.7c2.34-1.9,6-4.81,8.43-6.82a2.15,2.15,0,0,1,2.93.26.67.67,0,0,0,.09.14A2.05,2.05,0,0,1,56,41.8Z"/><path d="M39.42,0a16.21,16.21,0,1,0,16.2,16.21A16.22,16.22,0,0,0,39.42,0Zm0,29.93A13.73,13.73,0,0,1,25.7,16.21h0A13.73,13.73,0,1,1,39.43,29.93Z"/><path d="M44.26,12.38H42.6a5.17,5.17,0,0,0-.72-1.73h2.38a1.24,1.24,0,1,0,0-2.48H34.58a1.24,1.24,0,0,0,0,2.48h2.77A3,3,0,0,1,40,12.38H34.58a1.24,1.24,0,0,0,0,2.48H40a3.73,3.73,0,0,1-.57.78,2.88,2.88,0,0,1-2.07.83H34.58a1.24,1.24,0,0,0-1.24,1.26,1.32,1.32,0,0,0,.38.9l6.92,6.55a1.24,1.24,0,0,0,1.7-1.8L37.67,19a5.32,5.32,0,0,0,3.48-1.55,5.48,5.48,0,0,0,1.45-2.55h1.66a1.24,1.24,0,1,0,0-2.48Z"/></g></g></svg>