<svg xmlns="http://www.w3.org/2000/svg" viewBox="0 0 64 64"><defs><style>.cls-1{fill:#e7e7e7;}.cls-2{fill:#fff;}</style></defs><g id="Layer_2" data-name="Layer 2"><g id="bank"><polygon class="cls-1" points="2.89 22.32 32 1.08 61.03 22.32 60.58 25.81 58.51 30.97 56.71 32.49 56.71 51.61 56.8 52.74 58.33 52.74 58.42 56.7 61.03 56.7 61.03 63 2.89 63 2.89 56.52 5.23 56.52 5.23 52.02 7.57 52.47 7.21 33.03 4.78 30.97 5.23 27.9 2.89 27.27 2.89 22.32"/><polygon class="cls-2" points="13.06 33.03 15.4 32 15.4 28.44 48.79 27.63 48.79 31.32 50.59 32.58 50.59 51.61 48.61 53.1 48.34 56.16 15.67 56.79 15.22 52.38 13.06 51.61 13.06 33.03"/><polygon class="cls-1" points="18.46 35.64 18.46 49.14 45.01 49.14 45.55 35.19 18.46 35.64"/><path d="M63.58,22.91,32.61.2a1,1,0,0,0-1.22,0L.42,22.91A1,1,0,0,0,.2,24.35a1,1,0,0,0,.83.42h1v3.1a1,1,0,0,0,1,1h1V32a1,1,0,0,0,1,1h1V51.61h-1a1,1,0,0,0-1,1v3.09h-1a1,1,0,0,0-1,1V63a1,1,0,0,0,1,1H60.9a1,1,0,0,0,1-1v-6.2a1,1,0,0,0-1-1h-1V52.65a1,1,0,0,0-1-1h-1V33h1a1,1,0,0,0,1-1V28.9h1a1,1,0,0,0,1-1v-3.1h1a1,1,0,0,0,1-1A1,1,0,0,0,63.58,22.91ZM32,2.31l27.81,20.4H4.19ZM14.45,28.9V31H6.2V28.9ZM48.52,33h1V51.61h-1a1,1,0,0,0-1,1v3.09h-31V52.65a1,1,0,0,0-1-1h-1V33h1a1,1,0,0,0,1-1V28.9h31V32A1,1,0,0,0,48.52,33ZM8.26,33h4.13V51.61H8.26ZM6.2,53.68h8.25v2.06H6.2Zm53.67,8.26H4.13V57.81H59.87Zm-10.32-6.2V53.68h8.26v2.06Zm6.19-4.13H51.61V33h4.13ZM57.81,31H49.55V28.9h8.26Zm2.06-4.13H4.13V24.77H59.87Z"/><path class="cls-2" d="M32,18.58a4.13,4.13,0,1,1,4.13-4.13A4.13,4.13,0,0,1,32,18.58Z"/><path d="M45.42,34.07H18.58a1,1,0,0,0-1,1V49.55a1,1,0,0,0,1,1H45.42a1,1,0,0,0,1-1V35.1A1,1,0,0,0,45.42,34.07Zm-1,14.45H19.61V36.13H44.39Z"/><path d="M23.74,46.45h2.07V40.26h2.06V38.19H21.68v2.07h2.06Z"/><path d="M31,44.39H33v2.06H35.1V41.29a3.1,3.1,0,1,0-6.2,0v5.16H31Zm1-4.13a1,1,0,0,1,1,1v1H31v-1A1,1,0,0,1,32,40.26Z"/><path d="M38.19,46.45a4,4,0,0,1,1-2.64,4,4,0,0,1,1,2.64h2.06a6,6,0,0,0-1.65-4.13,6,6,0,0,0,1.65-4.13H40.26a4.05,4.05,0,0,1-1,2.65,4,4,0,0,1-1-2.65H36.13a6.07,6.07,0,0,0,1.65,4.13,6.11,6.11,0,0,0-1.65,4.13Z"/></g></g></svg>