<svg xmlns="http://www.w3.org/2000/svg" viewBox="0 0 36.23 62.88"><defs><style>.cls-1{fill:#e7e7e7;}</style></defs><g id="Layer_2" data-name="Layer 2"><g id="Prepaid"><rect class="cls-1" x="0.93" y="1.84" width="33.82" height="5.53"/><rect class="cls-1" x="1.2" y="50.86" width="33.82" height="10.68"/><path d="M31.62,0h-27A4.62,4.62,0,0,0,0,4.61V58.28a4.62,4.62,0,0,0,4.61,4.6h27a4.62,4.62,0,0,0,4.61-4.6V4.61A4.62,4.62,0,0,0,31.62,0Zm2.77,50H8.29a.92.92,0,1,0,0,1.84h26.1v6.45A2.77,2.77,0,0,1,31.62,61h-27a2.77,2.77,0,0,1-2.77-2.76V51.83H4.61a.92.92,0,0,0,0-1.84H1.84V9.21H34.39Zm0-42.62H1.84V4.61A2.77,2.77,0,0,1,4.61,1.84h27a2.77,2.77,0,0,1,2.77,2.77Z"/><path d="M21.8,4.24H18.12a.93.93,0,1,0,0,1.85H21.8a.93.93,0,0,0,0-1.85Z"/><path d="M18.12,54.23A2.77,2.77,0,1,0,20.88,57,2.77,2.77,0,0,0,18.12,54.23Zm0,3.68A.92.92,0,1,1,19,57,.93.93,0,0,1,18.12,57.91Z"/><circle cx="14.43" cy="5.17" r="0.92"/></g></g></svg>