<?xml version="1.0" encoding="UTF-8"?>
<svg version="1.1" xmlns="http://www.w3.org/2000/svg" width="512" height="512">
<path d="M0 0 C1.07865326 -0.00623996 2.15730652 -0.01247993 3.26864624 -0.01890898 C6.89546342 -0.03490751 10.52161492 -0.02220737 14.1484375 -0.00964355 C16.74349359 -0.0150616 19.3385466 -0.02218246 21.93359375 -0.03088379 C28.25779314 -0.04868452 34.5818028 -0.04482221 40.90600967 -0.03323323 C46.04510304 -0.02420524 51.18414317 -0.02297214 56.32324219 -0.02732849 C57.41973996 -0.02824789 57.41973996 -0.02824789 58.53838921 -0.02918586 C60.02332816 -0.03046474 61.5082671 -0.0317616 62.99320602 -0.03307623 C76.92247659 -0.04448657 90.85164192 -0.03136123 104.78089523 -0.00987476 C116.73679537 0.00799666 128.69254017 0.00489268 140.6484375 -0.0135498 C154.52733926 -0.03494854 168.40614875 -0.04338789 182.2850647 -0.03110075 C183.76458739 -0.02982653 185.24411009 -0.02856905 186.72363281 -0.02732849 C187.81560628 -0.02640284 187.81560628 -0.02640284 188.92963982 -0.02545848 C194.06346728 -0.02200258 199.19723628 -0.02783908 204.33105469 -0.0372467 C211.23887883 -0.04962671 218.14640414 -0.04083189 225.05419922 -0.01766968 C227.59390778 -0.01236719 230.13364098 -0.01392247 232.67333984 -0.02272034 C236.13152254 -0.03359813 239.58875349 -0.02000508 243.046875 0 C244.56612076 -0.01338433 244.56612076 -0.01338433 246.11605835 -0.02703905 C252.80087205 0.04833461 252.80087205 0.04833461 256.14815903 2.17743301 C257.86955821 5.09445931 258.01658419 6.92000796 258.00445557 10.30389404 C258.01270355 12.07911438 258.01270355 12.07911438 258.02111816 13.89019775 C257.99954651 15.83228119 257.99954651 15.83228119 257.97753906 17.81359863 C257.97641053 19.19348111 257.97704456 20.57336599 257.97930908 21.95324707 C257.98045695 25.69690298 257.9569364 29.44004646 257.92901325 33.18358326 C257.90401149 37.09666663 257.90165858 41.00976168 257.89691162 44.9229126 C257.8844782 52.33191307 257.85165177 59.74067751 257.81151366 67.14957404 C257.76680724 75.5847813 257.74481178 84.01999981 257.72473192 92.45529604 C257.68291935 109.80631209 257.61256033 127.15709837 257.5234375 144.50793457 C258.53262993 144.69431488 258.53262993 144.69431488 259.56221008 144.88446045 C260.89713753 145.13942291 260.89713753 145.13942291 262.2590332 145.39953613 C263.13807816 145.56503967 264.01712311 145.73054321 264.92280579 145.90106201 C268.81417386 146.80913542 272.1876765 148.40961652 275.7109375 150.25793457 C276.40509766 150.61718018 277.09925781 150.97642578 277.81445312 151.34655762 C291.76637575 158.74655442 299.46444441 170.94552114 304.6328125 185.66809082 C307.43561216 197.7520911 306.97344882 212.30513353 301.5234375 223.50793457 C301.06453125 224.4695752 300.605625 225.43121582 300.1328125 226.42199707 C292.40335424 241.51478135 280.22900452 250.04763663 264.36328125 255.61730957 C252.27928097 258.42010923 237.72623854 257.95794589 226.5234375 252.50793457 C225.56179688 252.04902832 224.60015625 251.59012207 223.609375 251.11730957 C210.18936634 244.24452885 200.58353576 233.24882478 195.62109375 218.89855957 C193.5234375 212.20925946 193.5234375 212.20925946 193.5234375 208.50793457 C192.47576328 208.51162174 191.42808907 208.51530891 190.34866714 208.51910782 C164.87774364 208.60783467 139.40684014 208.67360363 113.93579483 208.71518326 C101.61827356 208.73582438 89.30085426 208.76397464 76.98339844 208.80969238 C66.24976973 208.84951263 55.51621485 208.8753561 44.78251433 208.88428855 C39.09702526 208.88951143 33.41174747 208.9018194 27.72632599 208.9308548 C22.3780593 208.95794778 17.03009149 208.96639192 11.6817627 208.9603653 C9.71610644 208.96146827 7.75044048 208.9694584 5.78484344 208.98475647 C3.10588678 209.00458872 0.42806612 208.99989868 -2.25091553 208.98895264 C-3.42406866 209.00642969 -3.42406866 209.00642969 -4.62092185 209.02425981 C-7.92017281 208.98769326 -10.12558098 208.72385669 -12.95891953 206.98080063 C-15.07832372 203.52741746 -15.03042604 200.39263472 -14.98449707 196.46105957 C-14.99385701 195.23510071 -14.99385701 195.23510071 -15.00340605 193.984375 C-15.01937852 191.24193593 -15.0067154 188.50038045 -14.99414062 185.75793457 C-14.99955986 183.79341106 -15.0066814 181.82889161 -15.01538086 179.86437988 C-15.03364073 174.52557441 -15.02653563 169.18707758 -15.01386452 163.8482666 C-15.00375068 158.26606401 -15.0131257 152.68388818 -15.01940918 147.10168457 C-15.02669029 137.72663621 -15.01708568 128.35171381 -14.99804688 118.97668457 C-14.97627731 108.13161118 -14.98332834 97.28683856 -15.0053525 86.44177246 C-15.02349325 77.1372215 -15.02607129 67.83276117 -15.01559782 58.52819824 C-15.00935562 52.9680081 -15.00854726 47.40795942 -15.02174377 41.84777832 C-15.03328233 36.62086885 -15.02531293 31.39434788 -15.00216675 26.16748047 C-14.996869 24.2469955 -14.99841158 22.32647795 -15.00721741 20.40600586 C-15.01811451 17.78849619 -15.00448061 15.17223897 -14.98449707 12.55480957 C-14.99341996 11.79099976 -15.00234284 11.02718994 -15.01153612 10.24023438 C-14.96451575 7.07499281 -14.64895093 4.81731412 -13.09960175 2.03675079 C-8.89930327 -0.41135762 -4.77601687 -0.042076 0 0 Z M1.5234375 16.50793457 C1.5234375 21.12793457 1.5234375 25.74793457 1.5234375 30.50793457 C7.26477718 27.69031443 7.26477718 27.69031443 11.3359375 23.50793457 C11.91988281 22.82730957 12.50382812 22.14668457 13.10546875 21.44543457 C14.70816349 19.46224504 14.70816349 19.46224504 15.5234375 16.50793457 C10.9034375 16.50793457 6.2834375 16.50793457 1.5234375 16.50793457 Z M33.5234375 16.50793457 C31.8734375 20.46793457 30.2234375 24.42793457 28.5234375 28.50793457 C21.34020985 39.35319985 13.60038986 43.67715362 1.5234375 48.50793457 C1.5234375 61.70793457 1.5234375 74.90793457 1.5234375 88.50793457 C5.4834375 90.15793457 9.4434375 91.80793457 13.5234375 93.50793457 C24.36870278 100.69116222 28.69265655 108.43098221 33.5234375 120.50793457 C52.0034375 120.50793457 70.4834375 120.50793457 89.5234375 120.50793457 C89.5234375 86.18793457 89.5234375 51.86793457 89.5234375 16.50793457 C71.0434375 16.50793457 52.5634375 16.50793457 33.5234375 16.50793457 Z M105.5234375 16.50793457 C105.5234375 52.14793457 105.5234375 87.78793457 105.5234375 124.50793457 C106.8434375 123.51793457 108.1634375 122.52793457 109.5234375 121.50793457 C112.04125977 121.13562012 112.04125977 121.13562012 114.83984375 121.14465332 C116.35674805 121.14562012 116.35674805 121.14562012 117.90429688 121.14660645 C118.95423828 121.16271973 120.00417969 121.17883301 121.0859375 121.19543457 C122.13974609 121.19221191 123.19355469 121.18898926 124.27929688 121.18566895 C132.12262677 121.24072742 132.12262677 121.24072742 135.5234375 123.50793457 C136.1834375 124.49793457 136.8434375 125.48793457 137.5234375 126.50793457 C137.5234375 90.20793457 137.5234375 53.90793457 137.5234375 16.50793457 C126.9634375 16.50793457 116.4034375 16.50793457 105.5234375 16.50793457 Z M153.5234375 16.50793457 C153.5234375 50.82793457 153.5234375 85.14793457 153.5234375 120.50793457 C172.0034375 120.50793457 190.4834375 120.50793457 209.5234375 120.50793457 C211.9984375 114.56793457 211.9984375 114.56793457 214.5234375 108.50793457 C221.70666515 97.66266929 229.44648514 93.33871552 241.5234375 88.50793457 C241.5234375 75.30793457 241.5234375 62.10793457 241.5234375 48.50793457 C237.5634375 46.85793457 233.6034375 45.20793457 229.5234375 43.50793457 C218.67817222 36.32470692 214.35421845 28.58488693 209.5234375 16.50793457 C191.0434375 16.50793457 172.5634375 16.50793457 153.5234375 16.50793457 Z M227.5234375 16.50793457 C231.39819284 24.25744526 233.77392681 26.63317923 241.5234375 30.50793457 C241.5234375 25.88793457 241.5234375 21.26793457 241.5234375 16.50793457 C236.9034375 16.50793457 232.2834375 16.50793457 227.5234375 16.50793457 Z M1.5234375 106.50793457 C1.5234375 111.12793457 1.5234375 115.74793457 1.5234375 120.50793457 C6.1434375 120.50793457 10.7634375 120.50793457 15.5234375 120.50793457 C12.70581736 114.76659489 12.70581736 114.76659489 8.5234375 110.69543457 C7.8428125 110.11148926 7.1621875 109.52754395 6.4609375 108.92590332 C4.47774797 107.32320858 4.47774797 107.32320858 1.5234375 106.50793457 Z M232.5234375 111.50793457 C229.09792514 115.60819515 229.09792514 115.60819515 227.5234375 120.50793457 C232.1434375 120.50793457 236.7634375 120.50793457 241.5234375 120.50793457 C241.5234375 115.88793457 241.5234375 111.26793457 241.5234375 106.50793457 C238.37932733 106.50793457 234.86806882 109.65690984 232.5234375 111.50793457 Z M136.5234375 130.50793457 C136.0903125 131.46699707 136.0903125 131.46699707 135.6484375 132.44543457 C134.5234375 134.50793457 134.5234375 134.50793457 132.5234375 135.50793457 C128.73752725 135.77609306 124.94277874 135.73951544 121.1484375 135.75793457 C120.09398437 135.77855957 119.03953125 135.79918457 117.953125 135.82043457 C116.93734375 135.82559082 115.9215625 135.83074707 114.875 135.83605957 C113.48015381 135.85007812 113.48015381 135.85007812 112.05712891 135.86437988 C109.5234375 135.50793457 109.5234375 135.50793457 105.5234375 132.50793457 C105.5234375 152.30793457 105.5234375 172.10793457 105.5234375 192.50793457 C116.0834375 192.50793457 126.6434375 192.50793457 137.5234375 192.50793457 C137.5234375 172.04793457 137.5234375 151.58793457 137.5234375 130.50793457 C137.1934375 130.50793457 136.8634375 130.50793457 136.5234375 130.50793457 Z M1.5234375 136.50793457 C1.5234375 139.14793457 1.5234375 141.78793457 1.5234375 144.50793457 C30.5634375 144.50793457 59.6034375 144.50793457 89.5234375 144.50793457 C89.5234375 141.86793457 89.5234375 139.22793457 89.5234375 136.50793457 C60.4834375 136.50793457 31.4434375 136.50793457 1.5234375 136.50793457 Z M153.5234375 136.50793457 C153.5234375 139.14793457 153.5234375 141.78793457 153.5234375 144.50793457 C182.5634375 144.50793457 211.6034375 144.50793457 241.5234375 144.50793457 C241.5234375 141.86793457 241.5234375 139.22793457 241.5234375 136.50793457 C212.4834375 136.50793457 183.4434375 136.50793457 153.5234375 136.50793457 Z M1.5234375 160.50793457 C1.5234375 163.14793457 1.5234375 165.78793457 1.5234375 168.50793457 C30.5634375 168.50793457 59.6034375 168.50793457 89.5234375 168.50793457 C89.5234375 165.86793457 89.5234375 163.22793457 89.5234375 160.50793457 C60.4834375 160.50793457 31.4434375 160.50793457 1.5234375 160.50793457 Z M153.5234375 160.50793457 C153.5234375 163.14793457 153.5234375 165.78793457 153.5234375 168.50793457 C160.55237057 168.66013848 167.58087846 168.76517238 174.61108398 168.83752441 C177.00219605 168.86768697 179.39319756 168.90862358 181.78393555 168.96057129 C185.22211984 169.0334051 188.65884098 169.0673973 192.09765625 169.09387207 C193.69948006 169.14032364 193.69948006 169.14032364 195.33366394 169.18771362 C200.6479285 169.31543018 200.6479285 169.31543018 205.34121704 167.20257568 C207.18514204 165.08142722 208.5234375 163.39106866 208.5234375 160.50793457 C190.3734375 160.50793457 172.2234375 160.50793457 153.5234375 160.50793457 Z M218.2109375 175.88293457 C210.48337298 185.39213202 209.48671581 196.72174105 210.5234375 208.50793457 C212.7196588 219.27735708 219.3000127 227.64216119 228.09765625 234.00012207 C238.07359649 240.20094805 249.2954618 241.23101746 260.67578125 238.84777832 C271.86052855 235.22410844 280.32598802 227.31916452 285.84375 217.05090332 C289.89487601 207.60299756 290.1236273 196.33232993 286.9609375 186.57043457 C282.38435356 175.89707272 274.13429935 167.64701851 263.4609375 163.07043457 C246.26845636 157.50036004 230.22821763 162.93431523 218.2109375 175.88293457 Z M1.5234375 184.50793457 C1.5234375 187.14793457 1.5234375 189.78793457 1.5234375 192.50793457 C30.5634375 192.50793457 59.6034375 192.50793457 89.5234375 192.50793457 C89.5234375 189.86793457 89.5234375 187.22793457 89.5234375 184.50793457 C60.4834375 184.50793457 31.4434375 184.50793457 1.5234375 184.50793457 Z M153.5234375 184.50793457 C153.5234375 187.14793457 153.5234375 189.78793457 153.5234375 192.50793457 C166.7234375 192.50793457 179.9234375 192.50793457 193.5234375 192.50793457 C194.1834375 189.86793457 194.8434375 187.22793457 195.5234375 184.50793457 C181.6634375 184.50793457 167.8034375 184.50793457 153.5234375 184.50793457 Z " fill="#000000" transform="translate(118.4765625,143.4920654296875)"/>
<path d="M0 0 C4.35452658 1.15055381 7.06397766 4.42229247 10.12890625 7.5625 C11.09831831 8.51240272 12.06979752 9.4601989 13.04296875 10.40625 C21.92835778 19.10852363 21.92835778 19.10852363 22.62890625 24.1875 C22.51539452 29.93532125 19.05016348 32.73524552 15.12890625 36.5625 C14.17900353 37.53191206 13.23120735 38.50339127 12.28515625 39.4765625 C3.4943112 48.4523867 3.4943112 48.4523867 -1.74609375 48.875 C-4.70078028 48.81590627 -5.76167768 48.62814964 -8.37109375 47.0625 C-10.58287347 43.37620046 -10.2153065 40.83073808 -9.87109375 36.5625 C-9.54109375 35.9025 -9.21109375 35.2425 -8.87109375 34.5625 C-61.59111097 36.36181799 -111.72779689 61.08633684 -149.39550781 97.14990234 C-150.76236389 98.45841149 -152.14048355 99.75512729 -153.51953125 101.05078125 C-160.38844593 107.67050817 -166.1607533 114.95147035 -171.87109375 122.5625 C-172.29922363 123.12453125 -172.72735352 123.6865625 -173.16845703 124.265625 C-180.42087014 133.82017002 -186.35193673 143.92238391 -191.87109375 154.5625 C-192.26184082 155.31128418 -192.65258789 156.06006836 -193.05517578 156.83154297 C-208.93106377 187.64395671 -216.32273114 221.41312899 -216.24609375 255.9375 C-216.24554993 256.86180817 -216.2450061 257.78611633 -216.2444458 258.73843384 C-216.20403398 273.71392406 -215.23259597 287.92077157 -211.87109375 302.5625 C-211.66742188 303.50432129 -211.46375 304.44614258 -211.25390625 305.41650391 C-204.76201567 335.00569963 -191.98050642 363.27898405 -173.87109375 387.5625 C-173.42266113 388.16642578 -172.97422852 388.77035156 -172.51220703 389.39257812 C-165.84337007 398.2971685 -158.56215395 406.53287515 -150.87109375 414.5625 C-150.16210938 415.31273437 -149.453125 416.06296875 -148.72265625 416.8359375 C-133.68064712 432.36911428 -115.0315705 444.74950159 -95.87109375 454.5625 C-95.12811035 454.94889648 -94.38512695 455.33529297 -93.61962891 455.73339844 C-74.17857911 465.75421175 -53.76728146 471.81205538 -32.37524414 476.06396484 C-29.86126483 476.56445678 -27.34859525 477.06762053 -24.83984375 477.59375 C-23.76573242 477.81514648 -23.76573242 477.81514648 -22.66992188 478.04101562 C-20.87109375 478.5625 -20.87109375 478.5625 -18.80859375 480.1875 C-17.41722358 483.71230442 -17.22130016 486.83192031 -17.87109375 490.5625 C-19.24609375 493.0625 -19.24609375 493.0625 -21.87109375 494.5625 C-28.97353301 495.30263564 -35.88295166 494.10256368 -42.80859375 492.625 C-43.8356543 492.40682617 -44.86271484 492.18865234 -45.92089844 491.96386719 C-83.468096 483.56351555 -118.53770436 466.46237183 -147.87109375 441.5625 C-148.59425781 440.95019531 -149.31742187 440.33789062 -150.0625 439.70703125 C-163.56277978 427.89714183 -176.40048296 415.15619034 -186.87109375 400.5625 C-187.32532715 399.93666016 -187.77956055 399.31082031 -188.24755859 398.66601562 C-195.20520528 389.02460243 -201.28912223 379.05379071 -206.87109375 368.5625 C-207.20705566 367.94503906 -207.54301758 367.32757813 -207.88916016 366.69140625 C-218.24930732 347.5774146 -225.32441953 326.78498709 -229.87109375 305.5625 C-230.08137207 304.59731445 -230.29165039 303.63212891 -230.50830078 302.63769531 C-236.81985384 272.20431596 -236.50605692 237.89953101 -229.87109375 207.5625 C-229.65678711 206.57636719 -229.44248047 205.59023437 -229.22167969 204.57421875 C-218.22317964 155.71334224 -191.76778994 107.85811454 -152.87109375 75.5625 C-151.56398437 74.38880859 -151.56398437 74.38880859 -150.23046875 73.19140625 C-110.40362919 37.71445779 -59.95153843 21.41514448 -7.87109375 15.5625 C-8.86109375 14.0775 -8.86109375 14.0775 -9.87109375 12.5625 C-10.528628 5.65839041 -10.528628 5.65839041 -8.37109375 2.0625 C-5.55056583 0.37018325 -3.3002959 -0.19449258 0 0 Z " fill="#000000" transform="translate(249.87109375,-0.5625)"/>
<path d="M0 0 C1.54059082 0.32726074 1.54059082 0.32726074 3.11230469 0.66113281 C40.65950225 9.06148445 75.72911061 26.16262817 105.0625 51.0625 C105.78566406 51.67480469 106.50882813 52.28710938 107.25390625 52.91796875 C120.75418603 64.72785817 133.59188921 77.46880966 144.0625 92.0625 C144.5167334 92.68833984 144.9709668 93.31417969 145.43896484 93.95898438 C152.39661153 103.60039757 158.48052848 113.57120929 164.0625 124.0625 C164.56644287 124.98869141 164.56644287 124.98869141 165.08056641 125.93359375 C175.44071357 145.0475854 182.51582578 165.84001291 187.0625 187.0625 C187.27277832 188.02768555 187.48305664 188.99287109 187.69970703 189.98730469 C194.01126009 220.42068404 193.69746317 254.72546899 187.0625 285.0625 C186.84819336 286.04863281 186.63388672 287.03476562 186.41308594 288.05078125 C175.41458589 336.91165776 148.95919619 384.76688546 110.0625 417.0625 C108.75539063 418.23619141 108.75539063 418.23619141 107.421875 419.43359375 C70.36981999 452.43881988 21.95374548 470.87292646 -26.9375 476.0625 C-26.61523438 476.64 -26.29296875 477.2175 -25.9609375 477.8125 C-24.39731166 481.25008964 -24.34541078 484.35814695 -24.9375 488.0625 C-26.4375 490.5625 -26.4375 490.5625 -28.9375 492.0625 C-32.97938439 492.80351214 -35.32889785 493.06253078 -38.84765625 490.875 C-40.99935719 489.03699673 -42.96051904 487.08803839 -44.9375 485.0625 C-45.90691206 484.11259728 -46.87839127 483.1648011 -47.8515625 482.21875 C-56.73695153 473.51647637 -56.73695153 473.51647637 -57.4375 468.4375 C-57.32398827 462.68967875 -53.85875723 459.88975448 -49.9375 456.0625 C-48.98759728 455.09308794 -48.0398011 454.12160873 -47.09375 453.1484375 C-38.30290495 444.1726133 -38.30290495 444.1726133 -33.0625 443.75 C-30.10781347 443.80909373 -29.04691607 443.99685036 -26.4375 445.5625 C-24.22572028 449.24879954 -24.59328725 451.79426192 -24.9375 456.0625 C-25.2675 456.7225 -25.5975 457.3825 -25.9375 458.0625 C25.56826062 450.76022363 70.49656044 430.09669891 108.0625 394.0625 C108.88621094 393.28003906 109.70992187 392.49757813 110.55859375 391.69140625 C116.21595743 386.19091921 121.22174871 380.28859787 126.0625 374.0625 C126.48789062 373.51883789 126.91328125 372.97517578 127.3515625 372.41503906 C157.71988456 333.32248413 173.55057006 285.46352236 173.4375 236.125 C173.43695618 235.22686584 173.43641235 234.32873169 173.43585205 233.40338135 C173.39487065 218.62876758 172.35913467 204.50562627 169.0625 190.0625 C168.75699219 188.64759277 168.75699219 188.64759277 168.4453125 187.20410156 C161.95275515 157.61687646 149.17077932 129.34449621 131.0625 105.0625 C130.61406738 104.45857422 130.16563477 103.85464844 129.70361328 103.23242188 C123.03477632 94.3278315 115.7535602 86.09212485 108.0625 78.0625 C107.35351562 77.31226562 106.64453125 76.56203125 105.9140625 75.7890625 C90.87205337 60.25588572 72.22297675 47.87549841 53.0625 38.0625 C52.3195166 37.67610352 51.5765332 37.28970703 50.81103516 36.89160156 C31.36998536 26.87078825 10.95868771 20.81294462 -10.43334961 16.56103516 C-12.94732892 16.06054322 -15.4599985 15.55737947 -17.96875 15.03125 C-18.68482422 14.88365234 -19.40089844 14.73605469 -20.13867188 14.58398438 C-21.9375 14.0625 -21.9375 14.0625 -24 12.4375 C-25.39137017 8.91269558 -25.58729359 5.79307969 -24.9375 2.0625 C-20.61899975 -5.78931863 -7.15690405 -1.52690268 0 0 Z " fill="#000000" transform="translate(304.9375,19.9375)"/>
<path d="M0 0 C0.66 -0.0103125 1.32 -0.020625 2 -0.03125 C5.15312765 0.80629953 6.15596991 1.77475199 8 4.5 C8.48952097 7.92968726 8.37582359 11.29469075 8.25 14.75 C8.23195313 15.68585938 8.21390625 16.62171875 8.1953125 17.5859375 C8.14825673 19.89167015 8.08253713 22.19530945 8 24.5 C8.58491211 24.47905273 9.16982422 24.45810547 9.77246094 24.43652344 C12.43146465 24.35319885 15.09019355 24.30129103 17.75 24.25 C18.67039062 24.21648437 19.59078125 24.18296875 20.5390625 24.1484375 C27.33487804 24.04994742 27.33487804 24.04994742 30.609375 26.265625 C32.05976504 28.59602697 32.54245545 29.78285134 32.5 32.5 C32.51546875 33.49 32.51546875 33.49 32.53125 34.5 C31.69370047 37.65312765 30.72524801 38.65596991 28 40.5 C24.57031274 40.98952097 21.20530925 40.87582359 17.75 40.75 C16.34621094 40.72292969 16.34621094 40.72292969 14.9140625 40.6953125 C12.60832985 40.64825673 10.30469055 40.58253713 8 40.5 C8.02094727 41.08491211 8.04189453 41.66982422 8.06347656 42.27246094 C8.14680115 44.93146465 8.19870897 47.59019355 8.25 50.25 C8.30027344 51.63058594 8.30027344 51.63058594 8.3515625 53.0390625 C8.45005258 59.83487804 8.45005258 59.83487804 6.234375 63.109375 C3.90397303 64.55976504 2.71714866 65.04245545 0 65 C-0.66 65.0103125 -1.32 65.020625 -2 65.03125 C-5.15312765 64.19370047 -6.15596991 63.22524801 -8 60.5 C-8.48952097 57.07031274 -8.37582359 53.70530925 -8.25 50.25 C-8.23195313 49.31414062 -8.21390625 48.37828125 -8.1953125 47.4140625 C-8.14825673 45.10832985 -8.08253713 42.80469055 -8 40.5 C-8.58491211 40.52094727 -9.16982422 40.54189453 -9.77246094 40.56347656 C-12.43146465 40.64680115 -15.09019355 40.69870897 -17.75 40.75 C-19.13058594 40.80027344 -19.13058594 40.80027344 -20.5390625 40.8515625 C-27.33487804 40.95005258 -27.33487804 40.95005258 -30.609375 38.734375 C-32.05976504 36.40397303 -32.54245545 35.21714866 -32.5 32.5 C-32.51546875 31.51 -32.51546875 31.51 -32.53125 30.5 C-31.69370047 27.34687235 -30.72524801 26.34403009 -28 24.5 C-24.57031274 24.01047903 -21.20530925 24.12417641 -17.75 24.25 C-16.81414062 24.26804687 -15.87828125 24.28609375 -14.9140625 24.3046875 C-12.60832985 24.35174327 -10.30469055 24.41746287 -8 24.5 C-8.02094727 23.91508789 -8.04189453 23.33017578 -8.06347656 22.72753906 C-8.14680115 20.06853535 -8.19870897 17.40980645 -8.25 14.75 C-8.28351563 13.82960938 -8.31703125 12.90921875 -8.3515625 11.9609375 C-8.45005258 5.16512196 -8.45005258 5.16512196 -6.234375 1.890625 C-3.90397303 0.44023496 -2.71714866 -0.04245545 0 0 Z " fill="#000000" transform="translate(368,311.5)"/>
</svg>
