<svg xmlns="http://www.w3.org/2000/svg" viewBox="0 0 61.56 61.56"><defs><style>.cls-1{fill:#e7e7e7;}</style></defs><g id="Layer_2" data-name="Layer 2"><g id="Layer_5" data-name="Layer 5"><g id="outline_cut_copy" data-name="outline cut copy"><polygon class="cls-1" points="20.52 37.96 20.91 41.97 28.9 41.6 28.9 37.45 33.69 37.45 34.81 41.04 37.96 41.97 42.24 39.71 42.24 32.34 38.99 29.45 35.16 29.55 33.87 33.86 22.08 33.86 19.11 34.23 18.47 35.91 19.49 37.96 20.52 37.96"/><path class="cls-1" d="M34.81,4.56V.89h4.94L49,9.05l5,.7.84-3.82,4.61.12L61,6.56l-.6,14H54.9l-.72-2.15-7.08.24L36.42,15.53l-8.16-.24s-1.09-3,1.62-4,7.06-.52,7.06-.52S39,7.35,39,7.18a25.21,25.21,0,0,0-2.05-1.76Z"/><path class="cls-1" d="M1.11,44.21h6l.54,1.89H29.55S29,50.69,21,50.78l5.58,3.69L38,50.15l3.56,2.18L41,54.47l-5.55,1.26,4.26,1.71L41,60.32l-16.42.27L12.27,55.28l-4.95.18-.27,3-5.94-.4Z"/><path d="M15.39,10.77A2.57,2.57,0,1,0,18,8.21,2.57,2.57,0,0,0,15.39,10.77Zm3.08,0a.52.52,0,1,1-.52-.51A.52.52,0,0,1,18.47,10.77Z"/><path d="M30.78,10.26v-2A3.08,3.08,0,0,1,27.7,5.13a1,1,0,0,0-1-1H9.23a1,1,0,0,0-1,1A3.08,3.08,0,0,1,5.13,8.21a1,1,0,0,0-1,1v3.08a1,1,0,0,0,1,1,3.08,3.08,0,0,1,3.08,3.08,1,1,0,0,0,1,1H24.62V15.39H10.16a5.15,5.15,0,0,0-4-4V10.16a5.17,5.17,0,0,0,4-4H25.75a5.14,5.14,0,0,0,5,4.1Z"/><path d="M23.6,36.94h2v1h-2Z"/><path d="M21.55,43.09H27.7A2,2,0,0,0,29.75,41V39h3.18a5.13,5.13,0,0,0,10.16-1v-4.1a5.13,5.13,0,0,0-10.16-1H20.52a3.08,3.08,0,0,0-1,6V41a2.05,2.05,0,0,0,2.06,2.05Zm-1-8.21H33.86a1,1,0,0,0,1-1,3.08,3.08,0,0,1,6.16,0V38a3.08,3.08,0,0,1-6.16,0V35.91H32.83v1h-4.1a1,1,0,0,0-1,1V41H25.65V39h-2v2H21.55V38a1,1,0,0,0-1-1,1,1,0,1,1,0-2.06Z"/><path d="M36.94,32.83H39V39H36.94Z"/><path d="M8.21,36.6,6.88,35.27,5.43,36.72,8.51,39.8a1,1,0,0,0,.72.3,1,1,0,0,0,.72-.31h0L13,36.72l-1.45-1.45L10.26,36.6V33.86h-2Z"/><path d="M8.21,28.73h2v3.08h-2Z"/><path d="M1,59.51H7.18a1,1,0,0,0,1-1v-2h3.9l12.21,5a.8.8,0,0,0,.3.06v0H41a1,1,0,0,0,1-1,5.14,5.14,0,0,0-3.14-4.73l3.63-1.5a1,1,0,0,0,.6-1.2,4.93,4.93,0,0,0-6-3.59l-.4.11-9.81,3.63-3.41-2h2.29a5.13,5.13,0,0,0,5.13-5.13,1,1,0,0,0-1-1H8.21v-1a1,1,0,0,0-1-1H1a1,1,0,0,0-1,1V58.48A1,1,0,0,0,1,59.51Zm35.81-2a3.09,3.09,0,0,1,2.91,2H29.88l5-2.07v0ZM28.64,47.2a3.08,3.08,0,0,1-2.9,2H19.59a1,1,0,0,0-1,1,1,1,0,0,0,.51.89l7.18,4.11a1,1,0,0,0,.87.07l10.23-3.78a2.88,2.88,0,0,1,3.38,1.23l-16,6.63-12-5a.85.85,0,0,0-.39-.08H8.21V47.2ZM2.05,45.14H6.16V57.46H2.05Z"/><path d="M60.53,5.13H54.38a1,1,0,0,0-1,1V8.21H49.64L40.7.26A1,1,0,0,0,40,0H1A1,1,0,0,0,0,1V20.52a1,1,0,0,0,1,1H34.88a1,1,0,0,0,1-1V17.44h-2v2H2.05V2.05H33.86V9.23h2V6.16a2.05,2.05,0,1,1,0,4.1h-4.1a5.13,5.13,0,0,0-5.13,5.13,1,1,0,0,0,1,1h8a7.25,7.25,0,0,1,2.07.3l9.1,2.74a1,1,0,0,0,.3,0h6.15v1a1,1,0,0,0,1,1h6.15a1,1,0,0,0,1-1V6.16A1,1,0,0,0,60.53,5.13ZM47.35,17.44l-9-2.69a9.49,9.49,0,0,0-2.65-.39H28.9a3.1,3.1,0,0,1,2.91-2h4.1a4.11,4.11,0,0,0,0-8.21v-2h3.71l9,8a1,1,0,0,0,.68.26h4.1v7.18Zm12.16,2H55.4V7.18h4.11Z"/></g></g></g></svg>