<?xml version="1.0" encoding="UTF-8"?>
<svg version="1.1" xmlns="http://www.w3.org/2000/svg" width="512" height="512">
<path d="M0 0 C0.70432271 -0.00350607 1.40864541 -0.00701215 2.13431123 -0.01062447 C4.48226688 -0.01989022 6.82997186 -0.01502775 9.17793751 -0.01015663 C10.88324634 -0.01389533 12.58855346 -0.01849773 14.29385787 -0.02388728 C18.97095638 -0.0361056 23.64798329 -0.03585818 28.3250941 -0.03349853 C33.37297691 -0.03309006 38.42083686 -0.04413236 43.46870899 -0.05361366 C53.35537958 -0.07021845 63.24202633 -0.07572298 73.1287097 -0.07683842 C81.16664557 -0.07778918 89.20457359 -0.08190088 97.24250698 -0.08823967 C120.03912892 -0.10585099 142.83573204 -0.11507876 165.63236084 -0.11357872 C166.86103838 -0.11349881 168.08971592 -0.1134189 169.35562611 -0.11333656 C170.58580657 -0.1132548 171.81598704 -0.11317304 173.08344571 -0.1130888 C193.01695483 -0.11227603 212.95038837 -0.13141182 232.88387563 -0.1596133 C253.35889175 -0.18835197 273.83387101 -0.20215303 294.30890781 -0.20042574 C305.80105711 -0.19976216 317.29312718 -0.20524048 328.78525829 -0.22678185 C338.57061411 -0.24500658 348.35585478 -0.24933034 358.14122023 -0.235763 C363.13119856 -0.22923981 368.12095606 -0.22909277 373.11091328 -0.2464695 C377.68503789 -0.26223393 382.25876721 -0.25930223 386.83288238 -0.24190123 C388.48158682 -0.23883875 390.13032101 -0.24243522 391.77899035 -0.25362138 C409.8263504 -0.36789541 425.01094372 4.27536612 438.305089 16.91742516 C450.4506098 29.37490283 455.90386363 43.60938859 455.85376453 60.83763695 C455.85829565 61.98686176 455.86282676 63.13608657 455.86749518 64.32013637 C455.88013191 68.16209604 455.87851924 72.00391382 455.87686634 75.84589195 C455.88176689 78.60427444 455.88960143 81.36264705 455.89722157 84.12102318 C455.91380254 90.83131776 455.91932981 97.5415772 455.92044632 104.25189056 C455.92139827 109.7097361 455.92551588 115.1675701 455.93184757 120.62541199 C455.94945283 136.11748205 455.95868768 151.60952446 455.95718662 167.1016046 C455.95706676 168.35319579 455.95706676 168.35319579 455.95694447 169.63007164 C455.9568627 170.46549096 455.95678094 171.30091028 455.9566967 172.16164533 C455.95588423 185.69330866 455.97501409 199.22486057 456.0032212 212.75649168 C456.03199089 226.66839831 456.04575922 240.58025068 456.04403365 254.4921878 C456.04337111 262.2955231 456.04880342 270.09874161 456.07038975 277.90205002 C456.08865552 284.54733104 456.09290491 291.19244236 456.0793709 297.8377377 C456.07286785 301.22381691 456.07482568 304.60930714 456.0900774 307.99539757 C456.10558496 311.67787938 456.09618404 315.35951811 456.08081532 319.04198265 C456.09110244 320.09590617 456.10138957 321.1498297 456.11198843 322.2356903 C455.96867742 337.86796608 449.6130255 351.73794133 438.92618275 362.97601891 C428.05992986 373.57016195 414.55786235 380.49716341 399.17267799 380.51453781 C398.46835529 380.51804389 397.76403258 380.52154996 397.03836676 380.52516228 C394.69041111 380.53442803 392.34270613 380.52956556 389.99474049 380.52469444 C388.28943165 380.52843314 386.58412453 380.53303554 384.87882012 380.53842509 C380.20172162 380.55064341 375.52469471 380.55039599 370.84758389 380.54803634 C365.79970108 380.54762787 360.75184113 380.55867017 355.703969 380.56815147 C345.81729841 380.58475626 335.93065167 380.59026079 326.0439683 380.59137623 C318.00603242 380.59232699 309.9681044 380.59643869 301.93017101 380.60277748 C279.13354907 380.6203888 256.33694595 380.62961657 233.54031716 380.62811653 C232.31163962 380.62803662 231.08296208 380.62795671 229.81705189 380.62787437 C228.58687142 380.62779261 227.35669095 380.62771085 226.08923229 380.62762661 C206.15572316 380.62681384 186.22228963 380.64594963 166.28880236 380.67415111 C145.81378625 380.70288978 125.33880698 380.71669085 104.86377019 380.71496356 C93.37162089 380.71429997 81.87955082 380.7197783 70.3874197 380.74131966 C60.60206388 380.7595444 50.81682321 380.76386815 41.03145776 380.75030081 C36.04147944 380.74377762 31.05172194 380.74363058 26.06176472 380.76100731 C21.4876401 380.77677174 16.91391078 380.77384004 12.33979561 380.75643905 C10.69109117 380.75337656 9.04235698 380.75697303 7.39368764 380.7681592 C-10.6536724 380.88243322 -25.83826573 376.23917169 -39.132411 363.59711266 C-51.27793181 351.13963498 -56.73118563 336.90514922 -56.68108654 319.67690086 C-56.68561765 318.52767605 -56.69014877 317.37845125 -56.69481719 316.19440144 C-56.70745391 312.35244177 -56.70584125 308.51062399 -56.70418835 304.66864586 C-56.70908889 301.91026337 -56.71692343 299.15189076 -56.72454357 296.39351463 C-56.74112455 289.68322005 -56.74665182 282.97296061 -56.74776833 276.26264725 C-56.74872027 270.80480171 -56.75283788 265.34696771 -56.75916958 259.88912582 C-56.77677484 244.39705576 -56.78600968 228.90501335 -56.78450863 213.41293321 C-56.78442872 212.57853909 -56.78434881 211.74414496 -56.78426647 210.88446617 C-56.78418471 210.04904685 -56.78410295 209.21362754 -56.78401871 208.35289248 C-56.78320623 194.82122915 -56.8023361 181.28967724 -56.83054321 167.75804613 C-56.8593129 153.8461395 -56.87308122 139.93428713 -56.87135565 126.02235001 C-56.87069311 118.21901472 -56.87612542 110.4157962 -56.89771175 102.61248779 C-56.91597753 95.96720677 -56.92022692 89.32209545 -56.90669291 82.67680011 C-56.90018986 79.2907209 -56.90214768 75.90523068 -56.91739941 72.51914024 C-56.93290697 68.83665843 -56.92350605 65.1550197 -56.90813732 61.47255516 C-56.91842445 60.41863164 -56.92871157 59.36470811 -56.93931043 58.27884752 C-56.79599943 42.64657173 -50.44034751 28.77659648 -39.75350475 17.53851891 C-28.88725187 6.94437586 -15.38518436 0.0173744 0 0 Z M-10.413661 46.25726891 C-16.4854805 53.93730006 -16.56219859 61.33058852 -16.54737377 70.79556847 C-16.54963933 71.8567741 -16.55190488 72.91797974 -16.55423909 74.01134312 C-16.56056902 77.56712502 -16.55975037 81.12286871 -16.55892467 84.67865562 C-16.56191677 87.22810477 -16.56531942 89.77755347 -16.56910229 92.32700157 C-16.57702278 98.53323101 -16.58015669 104.73944646 -16.58071467 110.94568048 C-16.58119023 115.99123702 -16.58324702 121.03679042 -16.58641529 126.08234596 C-16.59521895 140.39413074 -16.59983507 154.70590803 -16.59908482 169.01769553 C-16.59904486 169.78882017 -16.5990049 170.55994482 -16.59896374 171.35443687 C-16.59892286 172.12650522 -16.59888198 172.89857357 -16.59883986 173.69403793 C-16.59843337 186.20746011 -16.60800424 198.7208522 -16.6221021 211.23426567 C-16.6364706 224.08951746 -16.64337204 236.94475459 -16.64250833 249.80001462 C-16.64217654 257.01464937 -16.64491561 264.22925257 -16.65568638 271.44388008 C-16.66575054 278.22854106 -16.6654512 285.01312436 -16.65816975 291.79779243 C-16.65712309 294.28745178 -16.65949157 296.77711526 -16.6655302 299.2667675 C-16.67324144 302.66625761 -16.66861087 306.06551696 -16.66089916 309.46500206 C-16.66604273 310.44925317 -16.67118629 311.43350427 -16.67648572 312.44758117 C-16.63575234 320.57788747 -15.85754459 327.81056466 -10.413661 334.25726891 C-3.81731874 339.47232582 2.08767415 340.38094425 10.42428875 340.38590336 C11.09065753 340.3876564 11.75702631 340.38940943 12.44358808 340.39121559 C14.67436934 340.39586398 16.90508508 340.3934131 19.13586903 340.39098167 C20.7522681 340.39285023 22.36866672 340.39515111 23.98506463 340.397847 C28.42548571 340.40396585 32.86588798 340.4038313 37.30631232 340.40265262 C42.09577363 340.40244864 46.88522889 340.40796711 51.67468739 340.41271019 C61.05729243 340.42101757 70.4398912 340.42376506 79.82249962 340.42432257 C87.44814764 340.42479765 95.07379359 340.426852 102.69944096 340.43002319 C124.31577895 340.4388297 145.93211197 340.44344253 167.54845177 340.44269272 C169.29656386 340.44263279 169.29656386 340.44263279 171.07999134 340.44257164 C172.24682084 340.44253076 173.41365034 340.44248988 174.6158383 340.44244776 C193.53111729 340.4420412 212.44637638 340.45161318 231.36164962 340.46571001 C250.78001271 340.48006769 270.19836609 340.48698054 289.61673462 340.48611623 C300.52019442 340.48578407 311.42363334 340.48853957 322.32708836 340.49929428 C331.60938994 340.50839124 340.89166121 340.51058112 350.17396532 340.50378486 C354.91009252 340.5005157 359.64616151 340.50047726 364.38228321 340.50913811 C368.71865582 340.51698643 373.05492389 340.51558875 377.3912939 340.50685398 C378.95921468 340.50531532 380.52714319 340.50714889 382.09505485 340.51271405 C396.80568772 340.79248395 396.80568772 340.79248395 409.586339 334.25726891 C415.6581585 326.57723775 415.73487659 319.18394929 415.72005177 309.71896935 C415.72231732 308.65776371 415.72458288 307.59655807 415.72691709 306.50319469 C415.73324702 302.94741279 415.73242837 299.3916691 415.73160267 295.83588219 C415.73459477 293.28643304 415.73799741 290.73698434 415.74178028 288.18753624 C415.74970077 281.9813068 415.75283469 275.77509135 415.75339266 269.56885733 C415.75386823 264.5233008 415.75592502 259.47774739 415.75909328 254.43219185 C415.76789695 240.12040707 415.77251306 225.80862978 415.77176281 211.49684228 C415.77172285 210.72571764 415.7716829 209.95459299 415.77164173 209.16010094 C415.77160085 208.38803259 415.77155997 207.61596424 415.77151785 206.82049988 C415.77111137 194.30707771 415.78068223 181.79368562 415.7947801 169.28027214 C415.80914859 156.42502035 415.81605003 143.56978322 415.81518632 130.7145232 C415.81485454 123.49988844 415.81759361 116.28528524 415.82836437 109.07065773 C415.83842853 102.28599675 415.83812919 95.50141345 415.83084774 88.71674538 C415.82980109 86.22708603 415.83216956 83.73742255 415.8382082 81.24777031 C415.84591943 77.84828021 415.84128887 74.44902085 415.83357716 71.04953575 C415.8412925 69.57315909 415.8412925 69.57315909 415.84916371 68.06695664 C415.80843033 59.93665034 415.03022258 52.70397315 409.586339 46.25726891 C402.98999673 41.04221199 397.08500385 40.13359356 388.74838924 40.12863445 C388.08202047 40.12688142 387.41565169 40.12512838 386.72908992 40.12332222 C384.49830866 40.11867383 382.26759291 40.12112472 380.03680897 40.12355614 C378.42040989 40.12168758 376.80401127 40.1193867 375.18761337 40.11669081 C370.74719228 40.11057197 366.30679001 40.11070651 361.86636567 40.11188519 C357.07690436 40.11208917 352.2874491 40.1065707 347.49799061 40.10182762 C338.11538556 40.09352024 328.73278679 40.09077275 319.35017838 40.09021524 C311.72453035 40.08974016 304.0988844 40.08768581 296.47323704 40.08451462 C274.85689905 40.07570811 253.24056602 40.07109528 231.62422623 40.07184509 C229.87611414 40.07190503 229.87611414 40.07190503 228.09268665 40.07196617 C226.34244241 40.07202749 226.34244241 40.07202749 224.55683969 40.07209005 C205.6415607 40.07249661 186.72630161 40.06292463 167.81102838 40.0488278 C148.39266529 40.03447012 128.9743119 40.02755727 109.55594337 40.02842158 C98.65248358 40.02875374 87.74904465 40.02599824 76.84558964 40.01524353 C67.56328805 40.00614657 58.28101679 40.00395669 48.99871267 40.01075295 C44.26258547 40.01402211 39.52651648 40.01406055 34.79039478 40.0053997 C30.45402218 39.99755138 26.1177541 39.99894906 21.7813841 40.00768384 C20.21346332 40.00922249 18.6455348 40.00738892 17.07762314 40.00182376 C2.36699027 39.72205386 2.36699027 39.72205386 -10.413661 46.25726891 Z " fill="#000000" transform="translate(56.41366100311279,35.74273109436035)"/>
<path d="M0 0 C1.29354401 -0.01022186 2.58708801 -0.02044373 3.91983032 -0.03097534 C7.45308131 -0.05765473 10.98590312 -0.05892415 14.51923513 -0.05384874 C17.47631333 -0.05170221 20.43330595 -0.06149422 23.39036572 -0.07105958 C30.37098661 -0.09321553 37.35139224 -0.09414454 44.33203125 -0.08203125 C51.51627093 -0.06995568 58.69972683 -0.09456974 65.88383281 -0.13717139 C72.06755346 -0.17248266 78.25102551 -0.18439372 84.43484318 -0.1778959 C88.12127777 -0.17428199 91.80715331 -0.17942188 95.49349594 -0.20732498 C99.60815495 -0.23730733 103.72123435 -0.21847494 107.8359375 -0.1953125 C109.04558167 -0.21059998 110.25522583 -0.22588745 111.50152588 -0.24163818 C119.1952919 -0.14610136 124.41170751 1.11550088 130.04736328 6.54931641 C134.31935411 11.45571374 134.63336676 16.61296229 134.59667969 22.83007812 C134.60690155 23.73347931 134.61712341 24.63688049 134.62765503 25.56765747 C134.65533511 28.53837984 134.65354235 31.50816832 134.64892578 34.47900391 C134.65670614 36.55494528 134.66537681 38.6308835 134.67489624 40.70681763 C134.6897967 45.05269705 134.68925603 49.39825146 134.67871094 53.74414062 C134.66712698 59.29814064 134.70097884 64.85080552 134.74740028 70.40458488 C134.77694518 74.69076238 134.77860898 78.97662094 134.77238083 83.26288223 C134.77340384 85.30971037 134.78381522 87.35655716 134.80400467 89.40328598 C134.97035251 108.62559652 134.97035251 108.62559652 130.01791382 114.93508911 C122.7854391 120.85975731 117.28551169 121.13615369 108.09472656 121.09863281 C106.80118256 121.10885468 105.50763855 121.11907654 104.17489624 121.12960815 C100.64164525 121.15628755 97.10882344 121.15755696 93.57549143 121.15248156 C90.61841323 121.15033502 87.66142062 121.16012704 84.70436084 121.1696924 C77.72373995 121.19184835 70.74333432 121.19277735 63.76269531 121.18066406 C56.57845563 121.16858849 49.39499974 121.19320255 42.21089375 121.2358042 C36.02717311 121.27111547 29.84370105 121.28302653 23.65988338 121.27652872 C19.97344879 121.2729148 16.28757325 121.27805469 12.60123062 121.30595779 C8.48657161 121.33594014 4.37349221 121.31710775 0.25878906 121.29394531 C-0.9508551 121.30923279 -2.16049927 121.32452026 -3.40679932 121.340271 C-11.10056533 121.24473418 -16.31698095 119.98313193 -21.95263672 114.54931641 C-26.22462755 109.64291908 -26.53864019 104.48567052 -26.50195312 98.26855469 C-26.51217499 97.3651535 -26.52239685 96.46175232 -26.53292847 95.53097534 C-26.56060855 92.56025298 -26.55881579 89.59046449 -26.55419922 86.61962891 C-26.56197958 84.54368753 -26.57065025 82.46774932 -26.58016968 80.39181519 C-26.59507014 76.04593576 -26.59452947 71.70038135 -26.58398438 67.35449219 C-26.57240042 61.80049217 -26.60625228 56.2478273 -26.65267372 50.69404793 C-26.68221862 46.40787043 -26.68388241 42.12201187 -26.67765427 37.83575058 C-26.67867728 35.78892244 -26.68908866 33.74207565 -26.70927811 31.69534683 C-26.87562595 12.47303629 -26.87562595 12.47303629 -21.92318726 6.1635437 C-14.69071253 0.2388755 -9.19078513 -0.03752088 0 0 Z M14.04736328 40.54931641 C14.04736328 53.74931641 14.04736328 66.94931641 14.04736328 80.54931641 C40.44736328 80.54931641 66.84736328 80.54931641 94.04736328 80.54931641 C94.04736328 67.34931641 94.04736328 54.14931641 94.04736328 40.54931641 C67.64736328 40.54931641 41.24736328 40.54931641 14.04736328 40.54931641 Z " fill="#000000" transform="translate(286.95263671875,165.45068359375)"/>
<path d="M0 0 C3.65455465 2.99795193 6.95094584 6.28367305 10.22998047 9.68359375 C10.89384766 10.31652344 11.55771484 10.94945312 12.24169922 11.6015625 C25.24492636 24.83855553 28.72894765 43.10859525 28.57763672 60.8984375 C28.10971253 80.62513628 20.27958088 96.13353468 6.22998047 109.68359375 C5.59705078 110.34746094 4.96412109 111.01132812 4.31201172 111.6953125 C-8.92498131 124.69853965 -27.19502103 128.18256093 -44.98486328 128.03125 C-64.71156206 127.56332581 -80.21996047 119.73319416 -93.77001953 105.68359375 C-94.43388672 105.05066406 -95.09775391 104.41773438 -95.78173828 103.765625 C-108.78496543 90.52863197 -112.26898671 72.25859225 -112.11767578 54.46875 C-111.64975159 34.74205122 -103.81961995 19.23365282 -89.77001953 5.68359375 C-89.13708984 5.01972656 -88.50416016 4.35585937 -87.85205078 3.671875 C-65.41851309 -18.36548542 -24.48371452 -18.20912948 0 0 Z M-65.77001953 39.68359375 C-70.858389 47.6838047 -71.49528087 55.31648598 -70.77001953 64.68359375 C-68.9499425 71.80789528 -64.63297373 78.13033978 -58.48876953 82.19140625 C-50.14136743 86.93424835 -41.6080905 88.43054619 -32.09423828 86 C-23.13125356 82.26929306 -17.79308316 76.41131443 -13.77001953 67.68359375 C-11.51436947 60.91664357 -11.64370974 52.35608698 -14.39501953 45.74609375 C-18.28676665 38.37369955 -23.66127226 32.68518214 -31.53173828 29.6015625 C-44.78627712 25.84424449 -56.73850458 29.54868105 -65.77001953 39.68359375 Z " fill="#000000" transform="translate(202.77001953125,168.31640625)"/>
<path d="M0 0 C0.71016899 -0.00765109 1.42033798 -0.01530219 2.15202725 -0.02318513 C4.5141856 -0.04370156 6.87535853 -0.03588973 9.23757935 -0.02792358 C10.9382822 -0.03662467 12.63897721 -0.04699326 14.33966064 -0.05889893 C18.94723022 -0.08562926 23.5544712 -0.08684191 28.16210318 -0.08177233 C32.0138916 -0.07962939 35.86561402 -0.08940866 39.71738827 -0.09898317 C48.80750241 -0.12115657 57.89745126 -0.12205804 66.98757935 -0.10995483 C76.35301069 -0.09787645 85.71784101 -0.12249738 95.08316982 -0.16509497 C103.13522851 -0.20036726 111.18709625 -0.21232338 119.23922932 -0.20581949 C124.04344032 -0.20219962 128.8472226 -0.20740676 133.65136337 -0.23524857 C138.17099196 -0.26046249 142.6896862 -0.25646546 147.20930099 -0.23042679 C148.86323873 -0.22570823 150.51724281 -0.23111845 152.17110443 -0.24767303 C161.27519524 -0.33219576 168.6898757 -0.20523286 175.61306763 6.52139282 C180.19764262 11.88870013 180.33937128 17.11275723 180.12478638 24.06826782 C179.35705683 29.24897714 177.4349968 32.94628099 173.61306763 36.52139282 C168.57572781 39.84043812 165.38773282 41.0227872 159.22613525 41.04278564 C158.51596626 41.05043674 157.80579727 41.05808783 157.074108 41.06597078 C154.71194965 41.0864872 152.35077672 41.07867538 149.98855591 41.07070923 C148.28785306 41.07941032 146.58715805 41.08977891 144.88647461 41.10168457 C140.27890503 41.1284149 135.67166406 41.12962755 131.06403208 41.12455797 C127.21224365 41.12241503 123.36052123 41.1321943 119.50874698 41.14176881 C110.41863284 41.16394222 101.328684 41.16484368 92.23855591 41.15274048 C82.87312456 41.14066209 73.50829425 41.16528302 64.14296544 41.20788062 C56.09090674 41.2431529 48.03903901 41.25510902 39.98690593 41.24860513 C35.18269493 41.24498527 30.37891266 41.2501924 25.57477188 41.27803421 C21.0551433 41.30324813 16.53644905 41.2992511 12.01683426 41.27321243 C10.36289652 41.26849387 8.70889244 41.27390409 7.05503082 41.29045868 C-2.04905999 41.37498141 -9.46374045 41.24801851 -16.38693237 34.52139282 C-20.97150736 29.15408552 -21.11323602 23.93002841 -20.89865112 16.97451782 C-20.13092158 11.79380851 -18.20886155 8.09650465 -14.38693237 4.52139282 C-9.34959256 1.20234752 -6.16159756 0.01999845 0 0 Z " fill="#000000" transform="translate(176.38693237304688,435.4786071777344)"/>
</svg>
