<svg xmlns="http://www.w3.org/2000/svg" viewBox="0 0 62 56"><defs><style>.cls-1{fill:#e7e7e7;}</style></defs><g id="Layer_2" data-name="Layer 2"><g id="tax"><polygon class="cls-1" points="0.74 4 4 0.86 57.17 1.04 61.4 4.38 60.86 13.02 1.64 13.02 0.74 4"/><polygon class="cls-1" points="5.33 17.34 5.33 32.55 35.03 32.55 35.03 17.07 5.33 17.34"/><polygon class="cls-1" points="38.9 16.99 56.99 17.07 56.99 32.42 39.44 32.91 38.9 16.99"/><polygon class="cls-1" points="5.33 37.49 5.33 49.21 47.09 48.56 48 48.56 52.22 54 54.56 49.21 56.99 45.75 56.99 37.49 5.33 37.49"/><path d="M57,0H5A5,5,0,0,0,0,5V49a5,5,0,0,0,5,5H48V52H5a3,3,0,0,1-3-3V14H60V49a3,3,0,0,1-3,3H56v2h1a5,5,0,0,0,5-5V5A5,5,0,0,0,57,0ZM2,12V5A3,3,0,0,1,5,2H57a3,3,0,0,1,3,3v7Z"/><path d="M55,4a3,3,0,1,0,3,3A3,3,0,0,0,55,4Zm0,4a1,1,0,1,1,1-1A1,1,0,0,1,55,8Z"/><path d="M47,4a3,3,0,1,0,3,3A3,3,0,0,0,47,4Zm0,4a1,1,0,1,1,1-1A1,1,0,0,1,47,8Z"/><path d="M5,34H35a1,1,0,0,0,1-1V17a1,1,0,0,0-1-1H5a1,1,0,0,0-1,1V33A1,1,0,0,0,5,34ZM6,18H34V32H6Z"/><path d="M10,23h2v6h2V23h2V21H10Z"/><path d="M20,21a3,3,0,0,0-3,3v5h2V27h2v2h2V24A3,3,0,0,0,20,21Zm-1,4V24a1,1,0,0,1,2,0v1Z"/><path d="M28,21a3.79,3.79,0,0,1-1,2.56A3.79,3.79,0,0,1,26,21H24a5.79,5.79,0,0,0,1.6,4A5.79,5.79,0,0,0,24,29h2a3.79,3.79,0,0,1,1-2.56A3.79,3.79,0,0,1,28,29h2a5.79,5.79,0,0,0-1.6-4A5.79,5.79,0,0,0,30,21Z"/><path d="M57,34a1,1,0,0,0,1-1V17a1,1,0,0,0-1-1H39a1,1,0,0,0-1,1V33a1,1,0,0,0,1,1ZM40,18H56V32H40Z"/><path d="M48,22a1,1,0,0,1,1,1h2a3,3,0,0,0-2-2.82V19H47v1.18A3,3,0,0,0,48,26a1,1,0,1,1-1,1H45a3,3,0,0,0,2,2.82V31h2V29.82A3,3,0,0,0,48,24a1,1,0,0,1,0-2Z"/><path d="M58.92,44.62A1,1,0,0,0,58,44V37a1,1,0,0,0-1-1H5a1,1,0,0,0-1,1V49a1,1,0,0,0,1,1H48.28l3.9,5.57A1,1,0,0,0,53,56h.22a1,1,0,0,0,.77-.82l.94-5.68,3.78-3.77A1,1,0,0,0,58.92,44.62ZM6,48V38H56v6H46a1,1,0,0,0-.89.54,1,1,0,0,0,.07,1L46.88,48Zm47.29.29a1.11,1.11,0,0,0-.28.55l-.59,3.58L47.92,46h7.67Z"/></g></g></svg>